<?xml version="1.0" encoding="UTF-8"?>
<svg xmlns="http://www.w3.org/2000/svg" xmlns:xlink="http://www.w3.org/1999/xlink" width="22pt" height="22pt" viewBox="0 0 22 22" version="1.1">
<g id="surface1">
<path style=" stroke:none;fill-rule:nonzero;fill:rgb(0%,0%,0%);fill-opacity:1;" d="M 8.25 1.953125 C 7.804688 2.574219 7.097656 3.816406 6.832031 4.613281 C 6.476562 5.5 5.5 6.210938 4.613281 6.210938 C 3.195312 6.210938 2.839844 7.273438 2.128906 14.195312 L 1.332031 22.175781 L 20.847656 22.175781 L 20.046875 14.195312 C 19.339844 7.453125 18.984375 6.210938 17.652344 6.210938 C 16.765625 6.210938 15.523438 5.144531 14.902344 3.726562 C 13.574219 1.066406 9.757812 0 8.25 1.953125 Z M 14.015625 4.167969 C 14.28125 5.945312 13.925781 6.210938 11.175781 6.210938 C 8.695312 6.210938 7.984375 5.855469 7.984375 4.613281 C 7.984375 2.304688 8.871094 1.683594 11.53125 1.953125 C 13.039062 2.128906 13.839844 2.839844 14.015625 4.167969 Z M 6.566406 8.160156 C 7.007812 9.046875 7.183594 9.046875 7.628906 8.160156 C 7.894531 7.628906 9.492188 7.097656 11.089844 7.097656 C 12.683594 7.097656 14.28125 7.628906 14.546875 8.160156 C 14.992188 9.046875 15.167969 9.046875 15.613281 8.160156 C 16.410156 6.476562 18.628906 6.917969 18.628906 8.78125 C 18.628906 9.667969 18.894531 12.863281 19.160156 15.878906 L 19.78125 21.289062 L 11.175781 21.289062 C 1.507812 21.289062 2.21875 22.089844 3.195312 12.507812 C 3.816406 7.363281 5.234375 5.410156 6.566406 8.160156 Z M 6.566406 8.160156 "/>
</g>
</svg>
