<?xml version="1.0" encoding="UTF-8"?>
<svg xmlns="http://www.w3.org/2000/svg" xmlns:xlink="http://www.w3.org/1999/xlink" width="15pt" height="17pt" viewBox="0 0 15 17" version="1.1">
<g id="surface1">
<path style=" stroke:none;fill-rule:nonzero;fill:#fe3e57;fill-opacity:1;" d="M 0 15.40625 C 0 16.285156 0.71875 17 1.605469 17 L 13.394531 17 C 14.28125 17 15 16.285156 15 15.40625 L 15 6.375 L 0 6.375 Z M 10.714844 8.898438 C 10.714844 8.679688 10.894531 8.5 11.117188 8.5 L 12.457031 8.5 C 12.675781 8.5 12.855469 8.679688 12.855469 8.898438 L 12.855469 10.226562 C 12.855469 10.445312 12.675781 10.625 12.457031 10.625 L 11.117188 10.625 C 10.894531 10.625 10.714844 10.445312 10.714844 10.226562 Z M 10.714844 13.148438 C 10.714844 12.929688 10.894531 12.75 11.117188 12.75 L 12.457031 12.75 C 12.675781 12.75 12.855469 12.929688 12.855469 13.148438 L 12.855469 14.476562 C 12.855469 14.695312 12.675781 14.875 12.457031 14.875 L 11.117188 14.875 C 10.894531 14.875 10.714844 14.695312 10.714844 14.476562 Z M 6.429688 8.898438 C 6.429688 8.679688 6.609375 8.5 6.832031 8.5 L 8.167969 8.5 C 8.390625 8.5 8.570312 8.679688 8.570312 8.898438 L 8.570312 10.226562 C 8.570312 10.445312 8.390625 10.625 8.167969 10.625 L 6.832031 10.625 C 6.609375 10.625 6.429688 10.445312 6.429688 10.226562 Z M 6.429688 13.148438 C 6.429688 12.929688 6.609375 12.75 6.832031 12.75 L 8.167969 12.75 C 8.390625 12.75 8.570312 12.929688 8.570312 13.148438 L 8.570312 14.476562 C 8.570312 14.695312 8.390625 14.875 8.167969 14.875 L 6.832031 14.875 C 6.609375 14.875 6.429688 14.695312 6.429688 14.476562 Z M 2.144531 8.898438 C 2.144531 8.679688 2.324219 8.5 2.542969 8.5 L 3.882812 8.5 C 4.105469 8.5 4.285156 8.679688 4.285156 8.898438 L 4.285156 10.226562 C 4.285156 10.445312 4.105469 10.625 3.882812 10.625 L 2.542969 10.625 C 2.324219 10.625 2.144531 10.445312 2.144531 10.226562 Z M 2.144531 13.148438 C 2.144531 12.929688 2.324219 12.75 2.542969 12.75 L 3.882812 12.75 C 4.105469 12.75 4.285156 12.929688 4.285156 13.148438 L 4.285156 14.476562 C 4.285156 14.695312 4.105469 14.875 3.882812 14.875 L 2.542969 14.875 C 2.324219 14.875 2.144531 14.695312 2.144531 14.476562 Z M 13.394531 2.125 L 11.785156 2.125 L 11.785156 0.53125 C 11.785156 0.238281 11.542969 0 11.25 0 L 10.179688 0 C 9.882812 0 9.644531 0.238281 9.644531 0.53125 L 9.644531 2.125 L 5.355469 2.125 L 5.355469 0.53125 C 5.355469 0.238281 5.117188 0 4.820312 0 L 3.75 0 C 3.457031 0 3.214844 0.238281 3.214844 0.53125 L 3.214844 2.125 L 1.605469 2.125 C 0.71875 2.125 0 2.839844 0 3.71875 L 0 5.3125 L 15 5.3125 L 15 3.71875 C 15 2.839844 14.28125 2.125 13.394531 2.125 Z M 13.394531 2.125 "/>
</g>
</svg>
