<?xml version="1.0" encoding="UTF-8"?>
<svg xmlns="http://www.w3.org/2000/svg" xmlns:xlink="http://www.w3.org/1999/xlink" width="16pt" height="16pt" viewBox="0 0 16 16" version="1.1">
<g id="surface1">
<path style=" stroke:none;fill-rule:nonzero;fill:#fe3e57;fill-opacity:1;" d="M 14 0 L 2 0 C 0.898438 0 0 0.898438 0 2 L 0 11 C 0 12.101562 0.898438 13 2 13 L 5 13 L 5 15.625 C 5 15.847656 5.179688 16 5.375 16 C 5.449219 16 5.527344 15.976562 5.597656 15.925781 L 9.5 13 L 14 13 C 15.101562 13 16 12.101562 16 11 L 16 2 C 16 0.898438 15.101562 0 14 0 Z M 14.5 11 C 14.5 11.273438 14.273438 11.5 14 11.5 L 9 11.5 L 8.601562 11.800781 L 6.5 13.375 L 6.5 11.5 L 2 11.5 C 1.726562 11.5 1.5 11.273438 1.5 11 L 1.5 2 C 1.5 1.726562 1.726562 1.5 2 1.5 L 14 1.5 C 14.273438 1.5 14.5 1.726562 14.5 2 Z M 14.5 11 "/>
</g>
</svg>
