<?xml version="1.0" encoding="UTF-8"?>
<svg xmlns="http://www.w3.org/2000/svg" xmlns:xlink="http://www.w3.org/1999/xlink" width="17pt" height="17pt" viewBox="0 0 17 17" version="1.1">
<g id="surface1">
<path style=" stroke:none;fill-rule:nonzero;fill:#fe3e57;fill-opacity:1;" d="M 5.84375 7.171875 L 11.15625 7.171875 C 11.449219 7.171875 11.6875 6.933594 11.6875 6.640625 L 11.6875 6.109375 C 11.6875 5.816406 11.449219 5.578125 11.15625 5.578125 L 5.84375 5.578125 C 5.550781 5.578125 5.3125 5.816406 5.3125 6.109375 L 5.3125 6.640625 C 5.3125 6.933594 5.550781 7.171875 5.84375 7.171875 Z M 5.3125 9.828125 C 5.3125 10.121094 5.550781 10.359375 5.84375 10.359375 L 11.15625 10.359375 C 11.449219 10.359375 11.6875 10.121094 11.6875 9.828125 L 11.6875 9.296875 C 11.6875 9.003906 11.449219 8.765625 11.15625 8.765625 L 5.84375 8.765625 C 5.550781 8.765625 5.3125 9.003906 5.3125 9.296875 Z M 8.5 13.851562 C 7.953125 13.851562 7.410156 13.683594 6.945312 13.34375 L 0 8.328125 L 0 15.40625 C 0 16.285156 0.714844 17 1.59375 17 L 15.40625 17 C 16.285156 17 17 16.285156 17 15.40625 L 17 8.328125 L 10.054688 13.34375 C 9.589844 13.683594 9.046875 13.851562 8.5 13.851562 Z M 16.390625 5.410156 C 16.09375 5.179688 15.816406 4.964844 15.40625 4.652344 L 15.40625 3.1875 C 15.40625 2.308594 14.691406 1.59375 13.8125 1.59375 L 11.238281 1.59375 C 11.136719 1.519531 11.042969 1.453125 10.9375 1.375 C 10.378906 0.96875 9.269531 -0.0117188 8.5 0 C 7.730469 -0.0117188 6.621094 0.96875 6.0625 1.375 C 5.957031 1.453125 5.863281 1.519531 5.761719 1.59375 L 3.1875 1.59375 C 2.308594 1.59375 1.59375 2.308594 1.59375 3.1875 L 1.59375 4.652344 C 1.183594 4.960938 0.90625 5.179688 0.609375 5.410156 C 0.226562 5.710938 0 6.175781 0 6.664062 L 0 7.019531 L 3.1875 9.320312 L 3.1875 3.1875 L 13.8125 3.1875 L 13.8125 9.320312 L 17 7.019531 L 17 6.664062 C 17 6.175781 16.773438 5.710938 16.390625 5.410156 Z M 16.390625 5.410156 "/>
</g>
</svg>
