<?xml version="1.0" encoding="UTF-8"?>
<svg xmlns="http://www.w3.org/2000/svg" xmlns:xlink="http://www.w3.org/1999/xlink" width="17pt" height="22pt" viewBox="0 0 17 22" version="1.1">
<g id="surface1">
<path style=" stroke:none;fill-rule:nonzero;fill:#fe3e57;fill-opacity:1;" d="M 7.625 21.554688 C 1.195312 12.503906 0 11.578125 0 8.25 C 0 3.695312 3.804688 0 8.5 0 C 13.195312 0 17 3.695312 17 8.25 C 17 11.578125 15.804688 12.503906 9.375 21.554688 C 8.953125 22.148438 8.046875 22.148438 7.625 21.554688 Z M 8.5 11.6875 C 10.457031 11.6875 12.042969 10.148438 12.042969 8.25 C 12.042969 6.351562 10.457031 4.8125 8.5 4.8125 C 6.542969 4.8125 4.957031 6.351562 4.957031 8.25 C 4.957031 10.148438 6.542969 11.6875 8.5 11.6875 Z M 8.5 11.6875 "/>
</g>
</svg>
