<?xml version="1.0" encoding="UTF-8"?>
<svg xmlns="http://www.w3.org/2000/svg" xmlns:xlink="http://www.w3.org/1999/xlink" width="17pt" height="17pt" viewBox="0 0 17 17" version="1.1">
<g id="surface1">
<path style=" stroke:none;fill-rule:nonzero;fill:#fe3e57;fill-opacity:1;" d="M 16.515625 12.011719 L 12.796875 10.417969 C 12.46875 10.28125 12.089844 10.375 11.867188 10.648438 L 10.21875 12.660156 C 7.636719 11.441406 5.554688 9.363281 4.335938 6.777344 L 6.347656 5.128906 C 6.625 4.90625 6.71875 4.527344 6.578125 4.199219 L 4.984375 0.480469 C 4.828125 0.128906 4.445312 -0.0664062 4.070312 0.0195312 L 0.617188 0.816406 C 0.257812 0.902344 0 1.222656 0 1.59375 C 0 10.109375 6.902344 17 15.40625 17 C 15.777344 17 16.101562 16.742188 16.183594 16.382812 L 16.980469 12.929688 C 17.066406 12.550781 16.871094 12.167969 16.515625 12.011719 Z M 16.515625 12.011719 "/>
</g>
</svg>
