<?xml version="1.0" encoding="UTF-8"?>
<svg xmlns="http://www.w3.org/2000/svg" xmlns:xlink="http://www.w3.org/1999/xlink" width="24pt" height="24pt" viewBox="0 0 24 24" version="1.1">
<g id="surface1">
<path style=" stroke:none;fill-rule:nonzero;fill:#8d8d8d;fill-opacity:1;" d="M 12.328125 0 C 5.75 0 2.25 4.214844 2.25 8.8125 C 2.25 10.941406 3.441406 13.601562 5.347656 14.445312 C 5.636719 14.574219 5.796875 14.519531 5.859375 14.25 C 5.917969 14.046875 6.167969 13.0625 6.289062 12.601562 C 6.324219 12.453125 6.304688 12.324219 6.1875 12.183594 C 5.554688 11.453125 5.050781 10.117188 5.050781 8.867188 C 5.050781 5.660156 7.597656 2.546875 11.9375 2.546875 C 15.6875 2.546875 18.308594 4.984375 18.308594 8.46875 C 18.308594 12.40625 16.226562 15.132812 13.519531 15.132812 C 12.019531 15.132812 10.902344 13.957031 11.257812 12.5 C 11.6875 10.765625 12.523438 8.90625 12.523438 7.65625 C 12.523438 6.535156 11.890625 5.605469 10.597656 5.605469 C 9.074219 5.605469 7.835938 7.117188 7.835938 9.144531 C 7.835938 10.433594 8.292969 11.304688 8.292969 11.304688 C 8.292969 11.304688 6.78125 17.402344 6.5 18.539062 C 6.027344 20.46875 6.566406 23.589844 6.613281 23.855469 C 6.640625 24.003906 6.808594 24.050781 6.902344 23.929688 C 7.050781 23.734375 8.875 21.132812 9.382812 19.25 C 9.570312 18.566406 10.335938 15.785156 10.335938 15.785156 C 10.835938 16.695312 12.289062 17.453125 13.832031 17.453125 C 18.429688 17.453125 21.75 13.414062 21.75 8.402344 C 21.734375 3.59375 17.621094 0 12.328125 0 "/>
</g>
</svg>
