<?xml version="1.0" encoding="UTF-8"?>
<svg xmlns="http://www.w3.org/2000/svg" xmlns:xlink="http://www.w3.org/1999/xlink" width="15pt" height="15pt" viewBox="0 0 15 15" version="1.1">
<g id="surface1">
<path style=" stroke:none;fill-rule:nonzero;fill:#8d8d8d;fill-opacity:1;" d="M 7.703125 0 C 3.59375 0 1.40625 2.632812 1.40625 5.507812 C 1.40625 6.839844 2.152344 8.5 3.34375 9.027344 C 3.523438 9.109375 3.621094 9.074219 3.664062 8.90625 C 3.699219 8.777344 3.855469 8.164062 3.929688 7.875 C 3.953125 7.78125 3.941406 7.703125 3.867188 7.613281 C 3.472656 7.15625 3.15625 6.324219 3.15625 5.542969 C 3.15625 3.539062 4.75 1.59375 7.460938 1.59375 C 9.804688 1.59375 11.445312 3.117188 11.445312 5.292969 C 11.445312 7.753906 10.140625 9.457031 8.449219 9.457031 C 7.511719 9.457031 6.816406 8.722656 7.035156 7.8125 C 7.304688 6.730469 7.828125 5.566406 7.828125 4.785156 C 7.828125 4.082031 7.433594 3.503906 6.625 3.503906 C 5.671875 3.503906 4.898438 4.449219 4.898438 5.714844 C 4.898438 6.523438 5.183594 7.066406 5.183594 7.066406 C 5.183594 7.066406 4.238281 10.875 4.0625 11.585938 C 3.765625 12.792969 4.105469 14.742188 4.132812 14.910156 C 4.152344 15.003906 4.253906 15.03125 4.3125 14.957031 C 4.40625 14.835938 5.546875 13.207031 5.867188 12.03125 C 5.980469 11.605469 6.457031 9.867188 6.457031 9.867188 C 6.773438 10.433594 7.679688 10.910156 8.644531 10.910156 C 11.519531 10.910156 13.59375 8.382812 13.59375 5.25 C 13.582031 2.246094 11.011719 0 7.703125 0 "/>
</g>
</svg>
