<?xml version="1.0" encoding="UTF-8"?>
<svg xmlns="http://www.w3.org/2000/svg" xmlns:xlink="http://www.w3.org/1999/xlink" width="10pt" height="10pt" viewBox="0 0 10 10" version="1.1">
<g id="surface1">
<path style=" stroke:none;fill-rule:nonzero;fill:#8d8d8d;fill-opacity:1;" d="M 10 1.898438 C 9.628906 2.0625 9.230469 2.171875 8.820312 2.222656 C 9.242188 1.96875 9.566406 1.570312 9.71875 1.089844 C 9.324219 1.328125 8.886719 1.492188 8.421875 1.585938 C 8.042969 1.1875 7.507812 0.9375 6.921875 0.9375 C 5.789062 0.9375 4.875 1.859375 4.875 2.988281 C 4.875 3.152344 4.886719 3.308594 4.921875 3.457031 C 3.21875 3.371094 1.710938 2.554688 0.695312 1.3125 C 0.519531 1.617188 0.414062 1.96875 0.414062 2.347656 C 0.414062 3.058594 0.78125 3.6875 1.328125 4.050781 C 0.996094 4.046875 0.671875 3.949219 0.398438 3.796875 C 0.398438 3.804688 0.398438 3.8125 0.398438 3.820312 C 0.398438 4.816406 1.109375 5.644531 2.042969 5.835938 C 1.875 5.882812 1.695312 5.902344 1.503906 5.902344 C 1.375 5.902344 1.242188 5.894531 1.117188 5.867188 C 1.382812 6.679688 2.136719 7.277344 3.03125 7.296875 C 2.335938 7.84375 1.449219 8.171875 0.492188 8.171875 C 0.324219 8.171875 0.160156 8.164062 0 8.140625 C 0.90625 8.726562 1.984375 9.0625 3.144531 9.0625 C 6.917969 9.0625 8.980469 5.9375 8.980469 3.230469 C 8.980469 3.136719 8.976562 3.050781 8.972656 2.964844 C 9.378906 2.675781 9.722656 2.3125 10 1.898438 Z M 10 1.898438 "/>
</g>
</svg>
